<?xml version="1.0" encoding="UTF-8" standalone="no"?>
<!-- Created with Inkscape (http://www.inkscape.org/) -->

<svg
   xmlns:dc="http://purl.org/dc/elements/1.1/"
   xmlns:cc="http://creativecommons.org/ns#"
   xmlns:rdf="http://www.w3.org/1999/02/22-rdf-syntax-ns#"
   xmlns:svg="http://www.w3.org/2000/svg"
   xmlns="http://www.w3.org/2000/svg"
   xmlns:sodipodi="http://sodipodi.sourceforge.net/DTD/sodipodi-0.dtd"
   xmlns:inkscape="http://www.inkscape.org/namespaces/inkscape"
   width="1.913in"
   height="2.0829999in"
   viewBox="0 0 48.5902 52.9082"
   version="1.1"
   id="svg8"
   inkscape:version="0.92.3 (2405546, 2018-03-11)"
   sodipodi:docname="logowritendesign.svg">
  <defs
     id="defs2" />
  <sodipodi:namedview
     id="base"
     pagecolor="#ffffff"
     bordercolor="#666666"
     borderopacity="1.0"
     inkscape:pageopacity="0.0"
     inkscape:pageshadow="2"
     inkscape:zoom="1.5833436"
     inkscape:cx="109.3243"
     inkscape:cy="12.945488"
     inkscape:document-units="mm"
     inkscape:current-layer="layer1"
     showgrid="false"
     inkscape:snap-global="false"
     inkscape:window-width="1366"
     inkscape:window-height="706"
     inkscape:window-x="-8"
     inkscape:window-y="-8"
     inkscape:window-maximized="1"
     units="in" />
  <metadata
     id="metadata5">
    <rdf:RDF>
      <cc:Work
         rdf:about="">
        <dc:format>image/svg+xml</dc:format>
        <dc:type
           rdf:resource="http://purl.org/dc/dcmitype/StillImage" />
        <dc:title />
      </cc:Work>
    </rdf:RDF>
  </metadata>
  <g
     inkscape:label="Layer 1"
     inkscape:groupmode="layer"
     id="layer1"
     style="display:inline"
     transform="translate(0,-244.09177)">
    <path
       style="fill:#000000;stroke-width:0.25295624"
       d="m 1.9129502,296.75125 c 0,-0.13913 0.120549,-0.25297 0.2678857,-0.25297 0.1473367,0 0.1975335,0.11384 0.1115487,0.25297 -0.085988,0.13912 -0.2065328,0.25295 -0.2678847,0.25295 -0.06135,0 -0.1115497,-0.11383 -0.1115497,-0.25295 z m 0.1402122,-0.73665 c -0.1354548,-0.21917 0.274494,-2.4787 0.9014597,-4.96861 0.276408,-1.09772 0.3073536,-1.12673 0.7623469,-0.71497 0.2608348,0.23605 0.8702865,0.49658 1.3543372,0.57895 l 0.8800936,0.14976 -1.519053,2.5928 c -1.3925449,2.37687 -1.9983322,2.9783 -2.3791844,2.36207 z M 21.25825,293.90549 c 0.405315,-1.28424 0.418398,-1.96832 0.05169,-2.70339 l -0.386383,-0.77452 1.055617,0.14537 c 3.771084,0.51935 4.317077,0.83306 4.270992,2.45399 -0.03601,1.26661 -0.398318,1.4477 -2.896418,1.4477 -2.243985,0 -2.272675,-0.008 -2.095505,-0.56915 z m -2.650187,-0.11051 c -3.611814,-0.93456 -3.271093,-0.74028 -2.977268,-1.69765 0.559769,-1.82389 -0.193607,-3.34254 -2.352015,-4.74113 -0.987256,-0.63973 -1.181086,-0.86678 -0.882548,-1.03385 0.515843,-0.28868 1.647163,0.32214 2.59405,1.40059 0.463684,0.52811 1.091569,0.92649 1.618527,1.02694 2.361799,0.45019 4.558663,2.54027 4.19449,3.99061 -0.323756,1.28937 -0.661147,1.45144 -2.195236,1.05449 z m -6.291897,-1.46312 c -1.464841,-0.54394 -4.1481619,-2.16086 -4.4817381,-2.70059 -0.074343,-0.1203 0.00315,-0.60112 0.1721329,-1.06852 0.2587621,-0.71559 0.5153835,-0.9154 1.6248138,-1.26512 1.1856314,-0.37374 1.4088064,-0.37717 2.2294544,-0.0343 1.205504,0.50369 2.579045,1.90475 2.940222,2.99912 0.233482,0.70747 0.216112,1.05849 -0.08845,1.7874 -0.208442,0.49887 -0.470166,0.9011 -0.581609,0.89385 -0.111444,-0.008 -0.928119,-0.28258 -1.814832,-0.61186 z m 15.810119,-1.31374 c -0.574304,-0.20725 -2.182491,-0.53748 -3.57375,-0.73384 -2.646542,-0.37354 -8.021055,-2.00361 -8.196395,-2.48593 -0.05599,-0.154 -0.49433,-0.65313 -0.974092,-1.10918 l -0.872295,-0.82918 1.100569,0.15942 c 1.453638,0.21057 3.007117,0.61476 6.619809,1.72233 3.527535,1.08147 7.013346,1.53446 10.164047,1.32084 2.160935,-0.1465 6.56141,-0.88514 6.376271,-1.07028 -0.04769,-0.0477 -1.709385,0.0384 -3.692665,0.19146 -4.959357,0.38257 -7.775928,0.0643 -12.333092,-1.39402 -4.501388,-1.44039 -6.158515,-1.75398 -8.601301,-1.6277 -1.56787,0.0811 -2.384923,0.28234 -3.882884,0.95657 -1.5076304,0.67859 -2.3191702,0.87718 -3.9524184,0.96717 -2.3011414,0.1268 -3.5026551,-0.16299 -4.4971246,-1.08464 -0.5370506,-0.49771 -0.6568825,-0.8376 -0.6568825,-1.86315 0,-1.08029 0.1042234,-1.34206 0.7510186,-1.8863 0.4130598,-0.34758 1.3521594,-0.82906 2.0868887,-1.06996 0.7347293,-0.24091 2.3034293,-0.91837 3.4859997,-1.50547 3.0577015,-1.51805 3.5927225,-1.64748 7.1034885,-1.71841 2.644434,-0.0534 3.341272,-0.15468 4.406021,-0.64021 1.613248,-0.73566 3.48469,-1.82926 3.353994,-1.95995 -0.05535,-0.0554 -1.117213,0.31809 -2.359705,0.82986 -1.942523,0.80012 -2.604659,0.94552 -4.725394,1.03771 -1.897906,0.0825 -2.466324,0.0321 -2.466324,-0.2184 0,-0.47997 3.552,-9.1645 3.90176,-9.53969 0.235558,-0.25267 0.722412,-0.26166 2.298692,-0.0424 3.109805,0.43254 6.883609,1.50053 16.046529,4.54118 9.135773,3.03163 8.795337,2.9674 12.59774,2.37695 l 0.822112,-0.12766 v 8.10607 c 0,4.81386 -0.09532,8.10606 -0.234654,8.10606 -1.012338,0 -4.47428,0.64219 -5.70982,1.05916 -1.480151,0.49953 -4.096142,1.13281 -6.197427,1.17858 -2.101285,0.0458 -5.560148,-0.75426 -8.188716,-1.64699 z m -23.8710818,-0.978 c -0.5393031,-0.37774 -0.5422286,-0.40855 -0.1195241,-1.25856 0.4107175,-0.82591 0.5025599,-0.87166 1.7613326,-0.87756 0.7304108,-0.004 1.32802,0.0362 1.32802,0.0881 0,0.0519 -0.2329869,0.62102 -0.5177489,1.26478 -0.4334209,0.97981 -0.6302564,1.17045 -1.2084977,1.17045 -0.3799105,0 -0.9395229,-0.17424 -1.2435819,-0.38721 z m -3.35407761,-0.87756 c -0.37100198,-0.37101 -0.50591283,-0.84319 -0.50591283,-1.7707 0,-0.69563 0.0517417,-1.26478 0.11498093,-1.26478 0.0632335,0 0.39164416,0.27667 0.72979031,0.61481 0.3381462,0.33815 1.0832172,0.74094 1.6557136,0.8951 0.5724973,0.15416 1.0409031,0.3742 1.0409031,0.489 0,0.45096 -1.3669304,1.54248 -1.9316665,1.54248 -0.3288428,0 -0.8255565,-0.22766 -1.10380861,-0.50591 z m -0.59393396,-7.64329 c -0.31388526,-2.61346 -0.18776731,-6.202 0.25703542,-7.31368 0.39229042,-0.98042 0.60134715,-1.13897 2.97223585,-2.25412 2.8372369,-1.3345 6.4130056,-2.6619 6.6181111,-2.4568 0.07326,0.0732 -0.4462867,1.54047 -1.1545619,3.26044 -2.0736177,5.03559 -2.0678938,5.02442 -2.5722665,5.02442 -0.3624452,0 -0.4674947,0.19204 -0.4674947,0.85465 0,0.73007 -0.1198501,0.90123 -0.8221079,1.17412 -2.5462311,0.9894 -3.6548669,1.60287 -4.1375208,2.28952 l -0.53289361,0.75811 z M 7.7309445,278.6827 c 0,-0.10973 2.0077559,-5.11414 4.6247535,-11.52733 1.762356,-4.31883 6.676947,-16.42233 8.201208,-20.19767 l 1.1588,-2.87017 0.7728,0.15457 c 1.134013,0.2268 2.008768,0.87251 1.856253,1.37023 -0.07099,0.23165 -0.944584,2.41321 -1.94133,4.84792 -0.996744,2.4347 -3.515156,8.63846 -5.59647,13.78612 -5.613983,13.88491 -5.187949,12.98208 -6.264141,13.27469 -0.503086,0.13678 -1.3415659,0.47878 -1.863288,0.75999 -0.5217222,0.2812 -0.9485855,0.46195 -0.9485855,0.40165 z"
       id="path1553"
       inkscape:connector-curvature="0"
       sodipodi:nodetypes="sscsssssccssccccsscccscssccccccscccccccccccccccccccccsccccccccscccscssczcsccscsscsscssscscsccsscccsscccccssccs" />
  </g>
  <g
     inkscape:groupmode="layer"
     id="layer2"
     inkscape:label="trace"
     style="display:inline"
     transform="translate(0,-244.09177)" />
</svg>
